<?xml version="1.0" encoding="UTF-8" standalone="no"?>
<!-- Created with Inkscape (http://www.inkscape.org/) -->

<svg
   xmlns:dc="http://purl.org/dc/elements/1.1/"
   xmlns:cc="http://creativecommons.org/ns#"
   xmlns:rdf="http://www.w3.org/1999/02/22-rdf-syntax-ns#"
   xmlns:svg="http://www.w3.org/2000/svg"
   xmlns="http://www.w3.org/2000/svg"
   xmlns:sodipodi="http://sodipodi.sourceforge.net/DTD/sodipodi-0.dtd"
   xmlns:inkscape="http://www.inkscape.org/namespaces/inkscape"
   width="210mm"
   height="297mm"
   viewBox="0 0 210 297"
   version="1.1"
   id="svg8"
   inkscape:version="0.92.2 (unknown)"
   sodipodi:docname="sarah sale.svg"
   inkscape:export-filename="/home/richasdy/Pictures/sarah sale.png"
   inkscape:export-xdpi="96"
   inkscape:export-ydpi="96">
  <defs
     id="defs2" />
  <sodipodi:namedview
     id="base"
     pagecolor="#ffffff"
     bordercolor="#666666"
     borderopacity="1.0"
     inkscape:pageopacity="0.0"
     inkscape:pageshadow="2"
     inkscape:zoom="0.7"
     inkscape:cx="253.549"
     inkscape:cy="497.03378"
     inkscape:document-units="mm"
     inkscape:current-layer="layer1"
     showgrid="false"
     inkscape:window-width="1366"
     inkscape:window-height="705"
     inkscape:window-x="0"
     inkscape:window-y="30"
     inkscape:window-maximized="1" />
  <metadata
     id="metadata5">
    <rdf:RDF>
      <cc:Work
         rdf:about="">
        <dc:format>image/svg+xml</dc:format>
        <dc:type
           rdf:resource="http://purl.org/dc/dcmitype/StillImage" />
        <dc:title></dc:title>
      </cc:Work>
    </rdf:RDF>
  </metadata>
  <g
     inkscape:label="Layer 1"
     inkscape:groupmode="layer"
     id="layer1">
    <text
       xml:space="preserve"
       style="font-style:normal;font-weight:normal;font-size:7.79631996px;line-height:1.25;font-family:sans-serif;letter-spacing:0px;word-spacing:0px;fill:#4e99ff;fill-opacity:1;stroke:none;stroke-width:0.19490799;"
       x="85.557861"
       y="169.66289"
       id="text1368"
       transform="scale(1.0394235,0.96207176)"><tspan
         sodipodi:role="line"
         id="tspan1366"
         x="85.557861"
         y="169.66289"
         style="font-style:normal;font-variant:normal;font-weight:normal;font-stretch:normal;font-size:51.97546768px;font-family:'Jenna Sue';-inkscape-font-specification:'Jenna Sue';stroke-width:0.19490799;fill:#4e99ff;fill-opacity:1;">S</tspan></text>
    <path
       style="fill:#ff99e8;stroke-width:0.05342086;fill-opacity:1"
       d="m 91.164932,128.09562 c -0.472718,-0.33926 -0.53992,-1.0859 -0.146765,-1.63064 l 0.180862,-0.2506 -0.172698,-0.66549 c -0.205863,-0.79329 -0.489618,-1.716 -1.039236,-3.37938 -0.377438,-1.14229 -1.480822,-4.85387 -2.563451,-8.62297 -0.283147,-0.98576 -0.452648,-1.67798 -0.445607,-1.81977 0.01462,-0.29428 0.211145,-0.63561 0.446614,-0.77568 0.282001,-0.16776 0.564721,-0.17129 1.268473,-0.0158 1.460299,0.32263 2.931802,1.06367 4.524971,2.27891 0.613632,0.46806 2.117562,1.67768 2.696941,2.16916 0.426452,0.36176 0.621651,0.44784 0.800943,0.35318 0.105282,-0.0556 0.386794,-0.65999 1.809371,-3.8848 1.61059,-3.65101 1.75134,-3.94368 1.97732,-4.11128 0.23754,-0.17618 0.59978,-0.23096 0.87523,-0.13235 0.25562,0.0916 0.57277,0.35699 0.67465,0.56474 0.045,0.0917 0.25135,1.00865 0.4586,2.03762 0.20726,1.02897 0.52545,2.60175 0.70709,3.49509 0.18164,0.89333 0.34896,1.79472 0.37181,2.00308 0.0676,0.61619 0.22733,0.9917 0.43653,1.02607 0.12727,0.0209 1.40094,-0.433 2.72312,-0.97047 0.53636,-0.21803 2.13368,-0.92335 3.54962,-1.56737 l 2.57442,-1.17095 0.31942,0.0329 c 0.39127,0.0404 0.63591,0.21751 0.81632,0.59123 0.21577,0.44692 0.17719,0.58661 -0.71277,2.58109 -0.86752,1.9442 -2.25356,5.00606 -3.14637,6.95051 -0.86409,1.88193 -1.3189,2.92165 -1.73436,3.9648 -0.77235,1.93924 -1.21336,2.57387 -1.94065,2.79261 -0.50831,0.15288 -0.96692,0.12821 -3.17375,-0.17079 -2.70167,-0.36607 -7.647701,-1.00076 -9.888087,-1.26893 -2.200722,-0.2634 -2.003805,-0.2281 -2.248561,-0.40371 z m 5.520453,-1.38775 c 2.956849,0.42107 8.070965,1.11165 8.858805,1.19622 0.18017,0.0194 0.20867,0.004 0.28224,-0.15452 0.045,-0.0968 0.0868,-0.20588 0.093,-0.24234 0.0157,-0.0926 1.08476,-2.48135 3.21876,-7.19173 1.00276,-2.21341 1.81962,-4.04605 1.81525,-4.07253 -0.009,-0.0518 -2.8004,1.13809 -4.15024,1.76876 -1.63986,0.76618 -2.3442,0.9551 -3.19976,0.85827 -0.6995,-0.0792 -0.98839,-0.24651 -1.3903,-0.8054 -0.37158,-0.5167 -0.55559,-1.09022 -0.78161,-2.43607 -0.0923,-0.54943 -0.29217,-1.60108 -0.44423,-2.33698 -0.21439,-1.03759 -0.28884,-1.31116 -0.33159,-1.21843 -0.0303,0.0658 -0.42515,0.9358 -0.877384,1.93341 -1.247905,2.75281 -1.451793,3.09179 -2.128782,3.53926 -0.569859,0.37666 -1.219292,0.42636 -1.85157,0.1417 -0.406469,-0.18298 -0.766408,-0.44772 -2.236078,-1.64464 -1.603625,-1.30601 -2.349688,-1.86539 -2.995438,-2.24593 -0.568412,-0.33496 -1.336006,-0.69557 -1.346366,-0.63252 -0.0041,0.0248 0.172275,0.79132 0.391889,1.70335 0.219614,0.91204 0.601679,2.52977 0.849033,3.59496 0.247353,1.06519 0.626254,2.64783 0.841999,3.51699 0.390186,1.57191 0.662493,3.04965 0.681547,3.69857 l 0.01,0.34 0.560141,0.09 c 0.308024,0.0498 2.166877,0.31935 4.130759,0.59906 z m 2.352899,-3.94128 c -0.202747,-0.13556 -0.39207,-0.40096 -0.444902,-0.62366 -0.154268,-0.65028 0.490497,-1.29815 1.174361,-1.18003 0.339767,0.0589 0.766377,0.56145 0.774307,0.91259 0.0179,0.79115 -0.868081,1.31614 -1.503766,0.8911 z"
       id="path1502"
       inkscape:connector-curvature="0" />
  </g>
</svg>
